# xmcd CD database file
# Copyright (C) 1993-1998 Ti Kan
#
# Track frame offsets:
#	183
#	10195
#	24268
#	35965
#	57133
#	70405
#	86038
#	96638
#	107840
#	115923
#	126310
#	141745
#	150890
#	164028
#
# Disc length: 2392 seconds
#
# Revision: 1
# Processed by: cddbd v1.4b41PL1 Copyright (c) Steve Scherf et al.
# Submitted via: NotifyCDPlayer(CDDB) 1.51.2
#
DISCID=ca09560e
DTITLE=Bob Wills and His Texas Playboys - Tiffany Transcriptions Volume 2 - 
DTITLE=The Best of the Tiffanys
DYEAR=1900
DGENRE=
TTITLE0=Take Me Back to Tulsa
TTITLE1=Faded Love
TTITLE2=Right or Wrong
TTITLE3=Bring It On Down to My House
TTITLE4=Cherokee Maiden
TTITLE5=Steel Guitar Rag
TTITLE6=Stay a Little Longer
TTITLE7=Roly Poly
TTITLE8=Cotton Eyed Joe
TTITLE9=Time Changes Everything
TTITLE10=Corrine, Corrina
TTITLE11=Ida Red
TTITLE12=Maiden's Prayer
TTITLE13=San Antonio Rose
EXTD=
EXTT0=
EXTT1=
EXTT2=
EXTT3=
EXTT4=
EXTT5=
EXTT6=
EXTT7=
EXTT8=
EXTT9=
EXTT10=
EXTT11=
EXTT12=
EXTT13=
PLAYORDER=
